<?xml version="1.0" encoding="UTF-8"?>
<svg id="Layer_1" data-name="Layer 1" xmlns="http://www.w3.org/2000/svg" viewBox="0 0 841.89 595.28">
  <defs>
    <style>
      .cls-1, .cls-2 {
        fill: #1c1c4c;
      }

      .cls-2, .cls-3 {
        fill-rule: evenodd;
      }

      .cls-3 {
        fill: #f90000;
      }

      .cls-4 {
        fill: #2c2a64;
      }
    </style>
  </defs>
  <path class="cls-4" d="M210.67,310.6h21.13c1.27,7.09,3.85,10.6,7.74,13.92,3.89,3.33,9.13,4.99,15.73,4.99,6.99,0,12.26-1.48,15.81-4.44,3.55-2.96,5.32-6.42,5.32-10.38,0-2.54-.75-4.71-2.24-6.49-1.49-1.78-4.1-3.34-7.81-4.66-2.54-.88-8.34-2.44-17.38-4.69-11.64-2.89-19.81-6.43-24.5-10.64-6.6-5.92-9.9-13.13-9.9-21.64,0-5.48,1.55-10.6,4.66-15.37,3.11-4.77,7.58-8.4,13.42-10.89,5.84-2.49,12.9-3.74,21.16-3.74,13.5,0,23.66,2.96,30.48,8.88,6.82,5.92,10.4,14.76,10.75,24.64h-21.71c-.93-5.52-2.92-9.49-5.98-11.92-3.06-2.42-7.64-3.63-13.75-3.63s-11.25,1.3-14.82,3.89c-2.3,1.66-3.45,3.89-3.45,6.67,0,2.54,1.08,4.72,3.23,6.53,2.74,2.3,9.39,4.69,19.95,7.19,10.56,2.49,18.37,5.07,23.44,7.74,5.06,2.67,9.02,6.31,11.88,10.93,2.86,4.62,4.29,10.33,4.29,17.13,0,6.16-1.71,11.93-5.14,17.31-3.42,5.38-8.26,9.38-14.52,11.99-6.26,2.62-14.06,3.92-23.4,3.92-13.6,0-24.04-3.14-31.32-9.43-7.29-6.28-11.64-15.79-13.06-27.82Z"/>
  <path class="cls-4" d="M376.23,260.63c-4.16-3.67-9.12-5.5-14.89-5.5-7.82,0-14.18,2.89-19.07,8.66s-7.33,15.45-7.33,29.05c0,12.81,2.48,22.08,7.44,27.8,4.96,5.72,11.43,8.58,19.4,8.58,5.77,0,10.67-1.61,14.71-4.84,4.03-3.23,6.69-7.63,7.96-13.2l21.49,5.13c-2.45,8.61-6.11,15.21-11,19.81-8.22,7.78-18.9,11.66-32.06,11.66-15.06,0-27.21-4.95-36.46-14.85-9.24-9.9-13.86-23.8-13.86-41.7,0-16.92,4.6-30.26,13.79-40.01,9.19-9.76,20.93-14.63,35.21-14.63,11.54,0,21.06,2.85,28.57,8.55,7.51,5.7,12.87,14.41,16.1,26.15l-21.05,6.67c-1.81-7.87-4.79-13.64-8.95-17.31Z"/>
  <path class="cls-4" d="M544.5,310.6h21.13c1.27,7.09,3.85,10.6,7.74,13.92,3.89,3.33,9.13,4.99,15.73,4.99,6.99,0,12.26-1.48,15.81-4.44,3.55-2.96,5.32-6.42,5.32-10.38,0-2.54-.75-4.71-2.24-6.49-1.49-1.78-4.1-3.34-7.81-4.66-2.54-.88-8.34-2.44-17.38-4.69-11.64-2.89-19.81-6.43-24.5-10.64-6.6-5.92-9.9-13.13-9.9-21.64,0-5.48,1.55-10.6,4.66-15.37,3.1-4.77,7.58-8.4,13.42-10.89,5.84-2.49,12.9-3.74,21.16-3.74,13.5,0,23.66,2.96,30.48,8.88,6.82,5.92,10.4,14.76,10.75,24.64h-21.71c-.93-5.52-2.92-9.49-5.98-11.92-3.06-2.42-7.64-3.63-13.75-3.63s-11.25,1.3-14.82,3.89c-2.3,1.66-3.45,3.89-3.45,6.67,0,2.54,1.08,4.72,3.23,6.53,2.74,2.3,9.39,4.69,19.95,7.19,10.56,2.49,18.37,5.07,23.44,7.74,5.06,2.67,9.02,6.31,11.88,10.93,2.86,4.62,4.29,10.33,4.29,17.13,0,6.16-1.71,11.93-5.14,17.31-3.42,5.38-8.26,9.38-14.52,11.99-6.26,2.62-14.06,3.92-23.4,3.92-13.6,0-24.04-3.14-31.32-9.43-7.29-6.28-11.64-15.79-13.06-27.82Z"/>
  <path class="cls-2" d="M631.91,374.53h-106.76c-1.52,0-2.94-.53-4.07-1.42-1.17-.92-2.01-2.15-2.34-3.63l-9.51-72.27-7.71,71.99c-.28,1.57-1.13,2.89-2.25,3.82-1.18,.93-2.59,1.52-4.17,1.52h-30.09c-1.62,0-3.15-.63-4.31-1.62-1.13-1.02-1.97-2.45-2.16-4.07h-.05l-13.13-92.05-26.42,177.79c-.25,1.62-1.02,2.98-2.2,4.02-1.18,.98-2.64,1.57-4.31,1.57h-.19c-1.67-.05-3.15-.74-4.33-1.81-1.11-1.07-1.85-2.55-2.01-4.17l-7.01-79.66h-1.92v.18H210.67v-13.5h186.28v.13h7.95c1.71,0,3.28,.69,4.46,1.76,1.18,1.09,1.96,2.55,2.11,4.27l2.64,51.85,24.86-189.02c.25-1.62,1.08-3.04,2.2-4.02,1.18-.98,2.71-1.62,4.31-1.62s3.15,.63,4.31,1.62c1.18,1.02,1.97,2.45,2.21,4.07l18.73,131.08h18.91l12.51-105.86c.28-1.52,1.11-2.84,2.2-3.77,1.13-.98,2.59-1.53,4.12-1.53h.09c1.62,.05,3.04,.49,4.12,1.39,1.18,.88,1.97,2.1,2.31,3.63l15.35,106.15h92.24c.91,.05,8.53,13.22,9.32,13.19Z"/>
  <g>
    <path class="cls-1" d="M431.2,176.59c-11.49,0-20.8,9.32-20.8,20.8,0,2.69,.51,5.25,1.44,7.61-5.27,2.51-10.95,4.72-16.88,6.57-13.14,4.08-27.53,6.39-41.62,6.39-10.52,0-20.87-1.28-30.42-4.03-7.16-2.05-13.86-4.93-19.88-8.68,3.83-1.43,7.65-3.39,11.16-6.18,2.95-2.34,5.65-5.27,7.88-8.87,2.22-3.6,3.97-7.86,5.08-12.85,.75-3.41,1.12-6.82,1.12-10.14,0-4.11-.56-8.08-1.66-11.75-1.65-5.51-4.5-10.39-8.56-13.95-2.02-1.78-4.35-3.22-6.92-4.2s-5.38-1.51-8.36-1.51c-1.42,0-2.88,.12-4.36,.36-3.75,.61-7.19,2.02-10.18,4.05-4.5,3.04-7.99,7.41-10.36,12.49-2.37,5.1-3.63,10.92-3.63,16.99,0,6.4,1.41,13.1,4.45,19.48,2.1,4.41,5.01,8.66,8.74,12.56-1.19,.16-2.34,.3-3.44,.42-2.07,.23-3.96,.41-5.62,.64-11.31,1.56-21.48,2.28-30.6,2.28-14.88,0-26.96-1.91-36.65-5.13-.16-.05-.31-.1-.46-.16v7.39c10.22,3.16,22.48,4.93,37.11,4.93,9.49,0,19.97-.75,31.56-2.35,1.28-.17,2.9-.34,4.73-.54,2.95-.32,6.45-.73,10.19-1.49,7.9,5.92,16.99,10.18,26.72,12.97,10.28,2.95,21.27,4.3,32.36,4.3,14.86,0,29.9-2.42,43.71-6.71,6.48-2.02,12.67-4.45,18.46-7.25,3.81,4.38,9.42,7.16,15.69,7.16,11.48,0,20.79-9.31,20.79-20.8s-9.31-20.8-20.79-20.8Zm-146.16,9.55c-2.58-5.41-3.76-11.07-3.76-16.45,0-6.8,1.9-13.12,5.14-17.84,1.62-2.37,3.56-4.33,5.75-5.82,2.2-1.48,4.65-2.48,7.37-2.93,1.13-.18,2.21-.27,3.24-.27,2.87,.01,5.36,.66,7.56,1.82,1.65,.88,3.14,2.05,4.47,3.5,1.99,2.17,3.61,4.97,4.72,8.22,1.12,3.25,1.72,6.94,1.72,10.84,0,2.8-.31,5.7-.96,8.62-1.45,6.54-4.05,11.22-7.26,14.75-2.42,2.64-5.21,4.66-8.21,6.22-2.83,1.47-5.85,2.53-8.86,3.31-4.96-4.2-8.54-8.98-10.92-13.97Z"/>
    <path class="cls-1" d="M451.99,197.39c0-11.49-9.31-20.8-20.8-20.8s-20.8,9.31-20.8,20.8c0,2.69,.51,5.25,1.44,7.61,.88,2.23,2.12,4.26,3.67,6.04,3.81,4.38,9.42,7.15,15.69,7.15,11.49,0,20.8-9.31,20.8-20.8Z"/>
    <circle class="cls-4" cx="431.21" cy="197.38" r="15.63" transform="translate(98.83 535.65) rotate(-70.1)"/>
    <circle class="cls-1" cx="431.2" cy="197.39" r="7.48"/>
    <path class="cls-1" d="M432.09,211.79c.92-.02,1.85-.14,2.74-.35,1.85-.43,3.58-1.27,5.09-2.42,1.45-1.09,2.73-2.43,3.74-3.94,.48-.71,.93-1.49,1.27-2.28,.08-.19,.75-1.68,.19-1.68-.55,0-1.01,1.03-1.26,1.42-.45,.7-.92,1.37-1.44,2.03-.97,1.24-2.1,2.37-3.4,3.27-1.35,.93-2.85,1.61-4.45,1.99-.82,.2-1.65,.3-2.49,.31-.42,0-.85-.01-1.27-.06-.42-.05-.83-.17-1.26-.17-.74,0-1.14,1.13-.4,1.47,.87,.4,1.98,.42,2.93,.4Z"/>
  </g>
  <path class="cls-1" d="M427.35,216.47l.15-.19c.09-.15,.13-.31,.13-.48,0-.13-.02-.25-.08-.37-.04-.12-.1-.22-.2-.31-.09-.09-.19-.16-.31-.2-.11-.06-.24-.09-.37-.08-.08,.01-.17,.02-.25,.03-.16,.05-.3,.13-.42,.25l-.15,.19c-.09,.15-.13,.31-.13,.48,0,.13,.02,.25,.08,.37,.04,.12,.1,.22,.2,.31,.09,.09,.19,.16,.31,.2,.11,.06,.24,.09,.37,.08,.08-.01,.17-.02,.25-.03,.16-.05,.3-.13,.42-.25Z"/>
  <path class="cls-3" d="M527.93,216.71h-10.44c-.81,0-1.48-.66-1.48-1.48v-10.44c0-.81-.66-1.48-1.48-1.48h-10.29c-.81,0-1.48,.66-1.48,1.48v10.44c0,.81-.66,1.48-1.48,1.48h-10.44c-.81,0-1.48,.66-1.48,1.48v10.29c0,.81,.66,1.48,1.48,1.48h10.44c.81,0,1.48,.66,1.48,1.48v10.44c0,.81,.66,1.48,1.48,1.48h10.29c.81,0,1.48-.66,1.48-1.48v-10.44c0-.81,.66-1.48,1.48-1.48h10.44c.81,0,1.48-.66,1.48-1.48v-10.29c0-.81-.66-1.48-1.48-1.48Z"/>
</svg>